# xmcd
#
# Track frame offsets: 
#        150
#        13775
#        28753
#        44531
#        59872
#        75335
#        90311
#        107335
#        120011
#        141823
#
# Disc length: 2124 seconds
#
# Revision: 0
# Processed by: cddbd v1.5.2PL0 Copyright (c) Steve Scherf et al.
# Submitted via: ExactAudioCopy v1.0b1
#
DISCID=73084a0a
DTITLE=The Main Ingredient - Bitter Sweet
DYEAR=1972
DGENRE=Soul
TTITLE0=Traveling
TTITLE1=Where are you
TTITLE2=You've got to take it (If you want it)
TTITLE3=Everybody plays the fool
TTITLE4=Whirl-wind
TTITLE5=Fly baby fly
TTITLE6=I can't see me whithout you
TTITLE7=Where do broken hearted lovers go?
TTITLE8=Who can I turn to (when nobody needs me)
TTITLE9=No tears (In the end)
EXTD=
EXTT0=
EXTT1=
EXTT2=
EXTT3=
EXTT4=
EXTT5=
EXTT6=
EXTT7=
EXTT8=
EXTT9=
PLAYORDER=
